<svg width="132" height="35" viewBox="0 0 132 35" fill="none" xmlns="http://www.w3.org/2000/svg">
<path d="M0 22.1053C0 14.6424 5.05398 9.06883 12.0918 9.06883C19.7436 9.06883 24.0891 14.17 24.0891 22.247C24.0891 22.7193 24.0891 23.1916 24.0418 23.664H6.65992C6.80162 26.9703 9.44669 29.332 13.0837 29.332C16.4372 29.332 18.3738 27.3482 19.0823 26.309L23.3806 29.5681C22.4359 31.3158 19.1296 35 12.9892 35C5.05398 35 0 29.5209 0 22.1053ZM6.84885 19.413H17.4764C17.3347 16.39 15.1619 14.4062 12.1862 14.4062C9.11606 14.4062 7.13225 16.5789 6.84885 19.413Z" fill="#000D2D"/>
<path d="M51.8904 0.236167V34.386H45.75V31.8354C45.0888 32.6383 42.6326 35 38.4288 35C31.3438 35 26.3371 29.6626 26.3371 22.058C26.3371 14.4062 30.966 9.06883 38.051 9.06883C42.302 9.06883 44.7581 11.4305 45.3722 12.2807V0.236167H51.8904ZM45.5611 22.1053C45.5611 17.4764 42.8216 14.8313 39.2318 14.8313C35.4531 14.8313 32.9025 17.807 32.9025 22.1053C32.9025 26.498 35.5476 29.2375 39.2318 29.2375C43.1994 29.2375 45.5611 26.0256 45.5611 22.1053Z" fill="#000D2D"/>
<path d="M65.3575 35C58.3197 35 56.8082 29.1903 56.8082 23.9474V9.68286H63.3264V24.7031C63.3264 27.4426 65.2158 29.143 67.4357 29.143C70.128 29.143 71.8284 27.1592 71.8284 24.5142V9.68286H78.3467V34.386H71.9701V31.5047C70.931 33.2051 68.5693 35 65.3575 35Z" fill="#000D2D"/>
<path d="M83.2431 34.386V0.236167H89.7613V20.0742L97.6965 9.68286H105.018L96.3267 20.8772L105.679 34.386H98.0271L89.7613 21.6329V34.386H83.2431Z" fill="#000D2D"/>
<path d="M108.382 34.386V9.68286H114.9V34.386H108.382ZM107.815 3.73144C107.815 1.60594 109.468 0 111.594 0C113.767 0 115.42 1.60594 115.42 3.73144C115.42 5.85695 113.767 7.46289 111.594 7.46289C109.468 7.46289 107.815 5.85695 107.815 3.73144Z" fill="#000D2D"/>
<path d="M120.666 9.68286V4.48718H127.09V9.68286H131.719V14.973H127.09V24.5142C127.09 28.1984 128.223 28.9541 130.727 28.9541C131.152 28.9541 131.388 28.9541 131.908 28.9069V34.4804C131.908 34.4804 130.916 34.7166 129.121 34.7166C123.217 34.7166 120.619 31.4103 120.619 24.7031V14.973H118.021V9.68286H120.666Z" fill="#000D2D"/>
</svg>
