<svg width="384" height="96" viewBox="0 0 384 96" fill="none" xmlns="http://www.w3.org/2000/svg">
<path d="M24.2666 67.4765C15.6958 67.4765 9.50012 60.4495 9.50012 49.7023C9.50012 38.9551 15.6958 32.2416 24.2666 32.2416C33.247 32.2416 38.9298 38.9551 38.9298 49.7023C38.9298 60.4495 33.1437 67.4765 24.2666 67.4765ZM26.0221 23.661C17.7577 23.661 11.9784 27.6912 9.60338 32.1348V0H0V74.8135H9.60338V67.5798C12.7012 72.9534 18.3807 76.1569 25.7123 76.1569C40.4753 76.1569 48.843 64.4797 48.843 49.7023C48.843 35.2349 41.0983 23.661 26.0221 23.661Z" fill="#231F20"/>
<path d="M63.8841 44.8465C64.2937 38.4395 69.2503 32.1359 77.4114 32.1359C86.1853 32.1359 90.8286 37.7161 91.0386 44.8465H63.8841ZM77.3013 23.5588C64.8134 23.5588 53.5579 34.2026 53.5579 49.8067C53.5579 66.6508 65.223 76.3646 78.5473 76.3646C90.1092 76.3646 98.057 69.441 100.845 60.6572L92.4843 57.7638C90.629 63.344 86.6018 67.7876 78.5473 67.7876C70.1762 67.7876 63.7774 61.5873 63.5674 52.7002H100.955C101.055 52.0801 101.155 50.8401 101.155 49.6C101.155 34.0993 92.5841 23.5588 77.3013 23.5588Z" fill="#231F20"/>
<path d="M149.482 9.40267H140.602V17.4631C140.602 21.8033 138.333 25.1101 132.96 25.1101H121.684V9.40267H112.803V17.4631C112.803 21.8033 110.532 25.1101 105.162 25.1101H102.477V33.8939H111.977V61.1717C111.977 70.1622 117.347 75.3291 125.814 75.3291C129.119 75.3291 131.597 74.709 132.423 74.399V66.132C131.597 66.3386 129.842 66.5453 128.603 66.5453C123.543 66.5453 121.684 64.2719 121.684 59.725V33.8939H139.779V61.1717C139.779 70.1622 145.145 75.3291 153.613 75.3291C156.917 75.3291 159.395 74.709 160.221 74.399V66.132C159.395 66.3386 157.64 66.5453 156.401 66.5453C151.341 66.5453 149.482 64.2719 149.482 59.725V33.8939H160.221V25.1101H149.482V9.40267Z" fill="#231F20"/>
<path d="M171.866 44.8465C172.275 38.4395 177.236 32.1359 185.393 32.1359C194.167 32.1359 198.814 37.7161 199.024 44.8465H171.866ZM185.287 23.5588C172.795 23.5588 161.54 34.2026 161.54 49.8067C161.54 66.6508 173.208 76.3646 186.529 76.3646C198.091 76.3646 206.042 69.441 208.83 60.6572L200.47 57.7638C198.611 63.344 194.584 67.7876 186.529 67.7876C178.161 67.7876 171.763 61.5873 171.553 52.7002H208.937C209.037 52.0801 209.14 50.8401 209.14 49.6C209.14 34.0993 200.569 23.5588 185.287 23.5588Z" fill="#231F20"/>
<path d="M238.227 24.2827C233.167 24.2827 226.971 26.1428 223.357 33.7898V25.1094H213.857V74.8117H223.563V49.9106C223.563 38.9567 229.036 34.6165 237.194 34.6165C238.536 34.6165 239.982 34.7199 241.428 34.9265V24.5927C240.911 24.4894 239.569 24.2827 238.227 24.2827Z" fill="#231F20"/>
<path d="M302.604 58.7971C303.227 63.964 307.147 68.0976 314.169 68.0976C319.642 68.0976 322.637 64.9974 322.637 61.4839C322.637 58.3838 320.365 56.007 316.234 55.077L307.767 53.2169C300.026 51.5635 295.375 46.2932 295.375 39.2696C295.375 30.7959 303.33 23.5622 313.033 23.5622C326.664 23.5622 330.897 32.4493 331.934 36.8894L323.359 40.0929C322.946 37.5094 320.884 31.8258 313.033 31.8258C308.08 31.8258 304.776 35.0328 304.776 38.4395C304.776 41.4363 306.634 43.6064 310.452 44.4331L318.506 46.1899C327.49 48.1533 332.24 53.6302 332.24 60.9672C332.24 67.9942 326.354 76.3646 314.066 76.3646C300.435 76.3646 294.652 67.5809 293.826 61.8973L302.604 58.7971Z" fill="#F63440"/>
<path d="M373.845 48.3611C373.845 38.7506 368.063 32.4469 359.702 32.4469C351.128 32.4469 345.348 38.7506 345.348 48.3611C345.348 58.0749 350.925 64.2751 359.702 64.2751C368.063 64.2751 373.845 57.9715 373.845 48.3611ZM344.725 75.3323C345.452 82.256 350.715 87.5263 358.256 87.5263C368.682 87.5263 373.432 82.1527 373.432 71.4055V64.2751C371.057 68.822 365.688 72.4389 358.256 72.4389C345.039 72.4389 335.435 62.4151 335.435 48.3611C335.435 34.9271 344.626 24.1799 358.256 24.1799C365.894 24.1799 371.057 27.0734 373.536 32.0336V25.1099H383.139V71.0955C383.139 83.7027 376.943 96 358.256 96C345.861 96 336.571 88.1428 335.332 77.499L344.725 75.3323Z" fill="#F63440"/>
<path d="M261.81 68.147C261.81 72.1118 258.595 75.3291 254.633 75.3291C250.671 75.3291 247.456 72.1118 247.456 68.147C247.456 64.1823 250.671 60.965 254.633 60.965C258.595 60.965 261.81 64.1823 261.81 68.147Z" fill="#F63440"/>
<path d="M283.34 37.664C282.221 37.664 281.172 37.943 280.228 38.4011L261.689 23.6375C261.755 23.2414 261.81 22.8384 261.81 22.4216C261.81 18.4568 258.598 15.2396 254.633 15.2396C250.671 15.2396 247.456 18.4568 247.456 22.4216C247.456 26.3898 250.671 29.6036 254.633 29.6036C255.621 29.6036 256.564 29.4038 257.421 29.0421L276.243 44.0365C276.215 44.3052 276.163 44.567 276.163 44.846C276.163 45.3971 276.239 45.9276 276.36 46.4443L264.419 55.9514C262.932 57.1364 262.688 59.303 263.872 60.7911C264.55 61.6454 265.551 62.0897 266.567 62.0897C267.317 62.0897 268.071 61.8452 268.708 61.3422L280.955 51.5871C281.702 51.8558 282.5 52.028 283.34 52.028C287.302 52.028 290.517 48.8108 290.517 44.846C290.517 40.8813 287.302 37.664 283.34 37.664Z" fill="#231F20"/>
</svg>
