<?xml version="1.0" standalone="no"?>
<!DOCTYPE svg PUBLIC "-//W3C//DTD SVG 20010904//EN"
 "http://www.w3.org/TR/2001/REC-SVG-20010904/DTD/svg10.dtd">
<svg version="1.0" xmlns="http://www.w3.org/2000/svg"
 width="276.000000pt" height="354.000000pt" viewBox="0 0 276.000000 354.000000"
 preserveAspectRatio="xMidYMid meet">

<g transform="translate(0.000000,354.000000) scale(0.100000,-0.100000)"
fill="#000000" stroke="none">
<path d="M1030 3286 c12 -31 -1 -43 -16 -15 -11 21 -12 20 -30 -20 l-18 -41
-13 27 c-7 16 -11 19 -8 8 9 -37 -32 -28 -60 13 -14 20 -25 33 -25 29 0 -4 7
-19 16 -32 15 -23 15 -25 -1 -25 -9 0 -15 -3 -13 -7 2 -5 14 -29 27 -54 18
-36 22 -55 17 -83 -8 -42 -26 -39 -26 5 0 33 -25 89 -40 89 -6 0 -10 -7 -10
-17 0 -15 -2 -14 -20 2 -24 22 -50 14 -43 -15 4 -16 2 -19 -11 -14 -9 3 -23 1
-31 -6 -20 -17 -33 -4 -17 18 22 30 26 46 14 50 -20 6 -42 32 -42 48 0 8 5 12
10 9 6 -3 10 -1 10 5 0 20 -25 4 -26 -16 -3 -37 -5 -39 -15 -15 -7 17 -15 22
-29 18 -11 -3 -20 -1 -20 4 0 5 -11 3 -23 -6 -16 -10 -35 -13 -55 -9 -34 7
-44 24 -14 24 14 0 15 2 2 10 -9 5 -19 5 -24 0 -13 -13 1 -40 22 -40 15 0 18
-5 15 -25 -4 -19 0 -25 21 -31 14 -3 26 -10 26 -15 0 -6 9 -5 20 1 11 6 26 8
33 4 6 -4 3 2 -8 13 -18 18 -21 18 -27 4 -6 -14 -7 -14 -7 1 -1 27 14 29 38 6
17 -15 20 -23 11 -32 -6 -6 -16 -11 -23 -11 -6 0 -13 -9 -16 -20 -3 -17 -1
-18 13 -6 10 8 16 9 16 3 0 -16 -16 -23 -34 -16 -9 3 -15 14 -14 23 2 12 -4
15 -24 13 -16 -2 -28 2 -28 9 0 6 7 8 18 5 9 -4 4 5 -13 18 -16 14 -36 25 -43
26 -16 0 -10 -24 6 -26 7 -1 16 -2 21 -3 5 0 7 -10 4 -20 -3 -12 -11 -17 -19
-14 -8 3 -14 0 -14 -6 0 -6 6 -11 13 -11 8 0 7 -4 -3 -10 -13 -8 -13 -10 2
-10 9 0 20 5 23 10 3 6 16 10 28 10 20 -1 19 -2 -7 -16 l-28 -16 36 -35 c20
-19 36 -42 36 -50 0 -9 8 -13 23 -11 17 2 21 9 20 28 -2 23 -2 23 6 5 5 -11
10 -14 10 -7 1 17 43 15 67 -3 18 -14 16 -15 -18 -9 -29 5 -39 3 -44 -9 -10
-28 6 -40 32 -23 26 18 64 21 64 6 0 -5 -10 -10 -22 -10 -39 0 -50 -14 -29
-32 11 -9 22 -14 25 -11 3 4 6 1 6 -6 0 -8 5 -9 19 -2 23 13 27 5 30 -61 1
-34 -2 -48 -11 -48 -10 0 -10 -2 -1 -8 9 -5 11 -24 6 -60 -8 -73 -20 -56 -21
32 0 51 -6 83 -16 97 l-15 22 -11 -28 c-10 -26 -12 -27 -29 -11 -9 9 -21 13
-24 10 -4 -4 -9 1 -13 10 -10 26 -27 19 -20 -9 4 -15 2 -25 -4 -25 -6 0 -9 4
-6 9 3 5 -6 20 -21 35 -22 22 -32 25 -62 20 -44 -8 -47 -10 -33 -27 7 -8 9
-17 5 -20 -3 -4 5 -7 20 -7 14 0 28 -4 31 -9 3 -5 26 -12 50 -15 35 -6 52 -16
80 -47 57 -62 46 -64 -31 -2 -48 38 -63 41 -63 12 0 -16 -3 -19 -12 -12 -17
13 -49 13 -41 0 4 -6 -1 -8 -12 -4 -19 8 -45 -8 -45 -28 0 -15 73 -40 94 -32
14 6 15 3 5 -14 -8 -15 -8 -24 0 -32 15 -15 66 4 65 24 -2 20 65 25 90 6 18
-13 18 -15 -3 -55 -12 -23 -27 -42 -35 -42 -8 0 -12 -8 -9 -22 3 -15 -9 -43
-34 -80 -49 -73 -56 -67 -10 8 35 56 36 56 16 77 -10 11 -19 27 -19 34 0 7 -4
13 -10 13 -5 0 -10 -8 -10 -19 0 -13 -7 -18 -26 -18 -15 0 -21 3 -14 7 7 5 3
12 -14 24 -14 9 -29 17 -32 19 -9 3 -11 -64 -2 -69 4 -3 5 -11 1 -19 -4 -11
-1 -13 13 -8 18 7 18 6 2 -11 -19 -19 -25 -41 -8 -31 5 3 10 1 10 -4 0 -15
-15 -14 -29 3 -9 11 -9 15 1 19 9 4 7 6 -4 6 -9 1 -19 -3 -22 -7 -7 -12 44
-59 69 -64 26 -4 32 -56 11 -97 -12 -21 -21 -29 -34 -25 -14 5 -15 4 -2 -5 13
-9 12 -16 -8 -53 -17 -30 -23 -55 -20 -83 l3 -40 47 98 c39 80 51 97 69 97 21
0 21 1 6 13 -15 11 -15 14 4 45 23 36 49 42 49 12 0 -11 -5 -20 -11 -20 -5 0
-7 -5 -4 -10 4 -6 -1 -33 -10 -61 -10 -28 -15 -52 -13 -55 10 -9 58 73 58 98
0 15 7 34 16 42 14 15 18 14 44 -4 43 -30 55 -22 24 16 -8 10 -13 13 -9 7 7
-15 -11 -18 -19 -4 -3 5 1 12 10 15 8 3 12 11 8 18 -5 8 0 9 14 6 13 -4 31 1
46 13 13 10 29 19 35 19 6 0 11 4 11 9 0 5 -13 4 -30 -2 -23 -9 -33 -8 -42 1
-9 9 -6 12 15 12 34 0 35 16 3 24 -27 7 -59 -2 -51 -13 2 -4 -1 -8 -8 -8 -7 0
-12 11 -12 24 0 13 6 23 13 23 6 0 12 5 12 10 0 6 -4 10 -10 10 -15 0 -12 16
6 34 11 12 20 13 34 6 16 -8 18 -8 14 5 -8 20 44 20 92 0 21 -9 32 -10 28 -3
-4 7 -3 8 5 4 6 -4 9 -12 6 -17 -10 -15 11 -41 44 -55 l33 -14 -7 33 c-4 17
-8 32 -9 33 -13 10 -123 54 -135 54 -10 0 -5 7 14 20 17 11 38 20 47 20 23 0
34 -20 17 -31 -7 -4 -10 -12 -5 -16 5 -4 11 -2 13 5 3 6 9 12 14 12 4 0 6 -8
2 -17 -5 -15 -3 -14 10 2 14 18 14 21 -3 27 -10 4 -21 11 -24 17 -8 13 40 45
54 36 11 -7 34 -55 32 -66 -1 -4 8 -15 19 -25 20 -18 21 -18 31 0 9 17 11 17
25 -3 14 -21 33 -20 33 0 0 6 -4 7 -10 4 -7 -4 -7 3 0 20 9 23 6 28 -23 45
-17 11 -42 20 -54 20 -13 0 -23 5 -23 11 0 6 10 9 23 8 12 -1 30 1 40 6 9 4
29 5 42 3 14 -3 25 -1 25 3 0 17 24 9 52 -18 15 -15 28 -32 28 -38 0 -7 9 -20
20 -30 21 -19 28 -7 8 13 -9 9 -9 12 0 12 7 0 12 -4 12 -9 0 -9 61 -51 74 -51
3 0 5 12 4 28 -1 21 -7 27 -24 27 -12 0 -20 -3 -17 -7 2 -5 -1 -8 -6 -8 -10 0
-16 29 -12 53 0 4 -3 7 -9 7 -5 0 -10 -7 -10 -15 0 -19 -16 -20 -23 -1 -9 24
35 27 72 5 47 -27 49 -18 4 15 -31 23 -33 26 -13 21 14 -4 37 -16 52 -26 14
-11 40 -19 57 -19 29 0 31 2 21 20 -9 16 -8 20 5 20 9 0 14 4 11 9 -7 11 13 9
33 -3 9 -6 7 1 -5 17 -17 24 -43 39 -30 18 3 -4 -5 -6 -19 -4 -15 3 -27 16
-34 34 -5 16 -16 29 -23 29 -10 0 -10 -2 0 -9 10 -6 9 -10 -7 -14 -12 -3 -19
-1 -15 4 3 5 -2 9 -10 9 -19 0 -30 -17 -14 -22 7 -3 5 -7 -6 -11 -9 -4 -15 -3
-12 1 3 5 -12 9 -32 9 -25 1 -45 -6 -65 -23 -16 -13 -34 -24 -40 -23 -7 0 -3
6 8 14 11 8 29 21 40 30 18 15 18 16 2 11 -16 -5 -16 -3 3 22 18 22 19 28 7
30 -8 2 -18 13 -22 25 -7 22 -7 22 -16 -3 -8 -22 -8 -21 -4 8 5 36 -4 42 -22
13 -8 -13 -9 -21 -2 -23 6 -2 -1 -14 -15 -27 -22 -21 -26 -22 -26 -7 0 9 4 14
10 11 6 -3 7 1 4 9 -3 9 -11 16 -16 16 -7 0 -8 -21 -4 -59 6 -49 4 -60 -9 -65
-22 -8 -22 -8 -29 11 -4 9 -1 20 6 25 10 6 8 8 -4 8 -10 0 -18 5 -18 11 0 6 8
8 18 5 16 -6 16 -5 0 8 -10 7 -18 23 -18 35 0 11 -4 21 -10 21 -5 0 -10 -7
-10 -15 0 -9 -10 -15 -26 -15 -32 0 -25 12 32 51 33 22 52 29 70 25 14 -4 24
-2 24 4 0 14 57 13 66 -1 4 -8 9 -7 15 2 7 12 9 11 9 -1 0 -8 13 -24 27 -34
23 -17 26 -17 20 -3 -6 15 -3 16 13 7 16 -9 20 -8 20 5 0 8 7 15 15 15 8 0 15
-3 15 -6 0 -9 -64 -64 -75 -64 -6 0 -16 -9 -23 -20 -15 -24 -12 -25 32 -3 19
9 33 20 30 24 -2 4 12 11 33 15 22 4 38 3 40 -3 2 -6 10 -19 18 -29 13 -18 15
-18 32 -1 10 10 13 17 5 17 -7 0 -11 6 -10 13 2 7 -13 14 -42 17 l-44 5 27 13
c39 17 54 15 60 -9 8 -28 51 -23 55 8 2 12 10 27 18 33 11 10 17 6 30 -26 15
-35 15 -43 2 -81 -9 -24 -11 -43 -6 -43 5 0 7 -8 4 -17 -3 -10 -1 -25 4 -33 8
-12 10 -12 10 -1 0 11 3 11 17 0 15 -12 16 -12 10 5 -6 14 -4 17 9 12 12 -4
15 -2 11 9 -4 8 -2 17 4 20 5 4 9 25 7 48 -2 32 -9 48 -31 66 -38 32 -27 38
26 12 47 -23 85 -76 74 -105 -4 -9 -18 -21 -32 -26 -32 -12 -34 -49 -4 -57
l22 -6 -23 -17 c-15 -11 -21 -23 -17 -34 7 -17 47 -23 47 -7 0 5 -9 7 -20 4
-13 -4 -20 0 -20 10 0 19 27 30 34 14 2 -7 5 -4 5 6 1 9 6 17 12 17 16 0 1
-62 -19 -77 -9 -8 -11 -13 -4 -13 7 0 12 -4 12 -10 0 -5 -7 -6 -17 -3 -11 4
-14 3 -9 -5 4 -7 12 -12 17 -12 11 0 40 61 33 71 -2 4 5 9 17 12 17 5 18 3 8
-10 -21 -24 -22 -53 -3 -46 12 4 15 2 12 -8 -3 -8 -11 -13 -17 -11 -7 1 -9 -2
-6 -8 4 -6 13 -9 21 -6 8 3 14 -1 14 -9 0 -8 5 -15 10 -15 6 0 10 5 10 11 0 5
4 8 8 5 5 -3 9 1 9 8 0 7 -7 13 -15 12 -8 0 -16 5 -18 12 -1 7 0 8 3 2 3 -6
11 -7 22 0 10 5 20 8 23 7 2 -1 -8 8 -21 20 -23 20 -24 22 -4 17 52 -14 84 47
36 69 -23 10 -32 37 -13 37 6 0 10 -8 10 -17 0 -12 3 -14 11 -6 18 18 0 36
-30 30 -14 -3 -33 0 -43 7 -21 15 -80 116 -68 116 13 0 40 -42 40 -63 0 -14 5
-17 16 -13 11 4 22 -1 31 -14 17 -24 33 -26 33 -4 0 8 -4 12 -10 9 -5 -3 -10
-1 -10 4 0 25 67 -4 76 -32 l8 -22 5 21 c5 18 10 20 29 13 29 -11 28 -42 -3
-83 -14 -18 -25 -37 -25 -42 0 -5 4 -3 8 3 12 19 54 21 60 3 4 -12 3 -13 -10
-3 -13 11 -15 7 -16 -31 0 -34 5 -49 24 -67 13 -12 25 -21 26 -18 20 32 28 52
28 69 0 13 7 20 20 20 15 0 20 7 20 29 0 33 -20 54 -43 45 -8 -3 -18 0 -23 7
-5 9 -2 10 12 6 14 -6 13 -2 -6 14 l-25 20 25 -12 c36 -17 108 -77 120 -100
10 -17 26 -82 34 -139 2 -13 8 -26 13 -27 5 -2 7 -17 5 -33 -3 -20 -10 -30
-22 -30 -31 0 -34 -33 -5 -58 22 -19 25 -25 14 -38 -10 -12 -10 -15 2 -12 9 2
13 -4 11 -17 -2 -16 -1 -17 7 -5 13 20 2 70 -15 70 -8 0 -14 5 -14 10 0 7 7 7
20 0 11 -6 25 -8 31 -4 6 4 15 0 20 -7 6 -10 9 -7 10 11 1 14 1 28 0 33 0 4 4
7 9 7 6 0 8 -11 6 -24 -5 -29 -28 -66 -40 -66 -4 0 -3 6 3 14 7 9 8 17 3 20
-12 7 -25 -22 -16 -35 3 -5 11 -9 19 -9 8 0 11 -7 8 -20 -4 -14 0 -20 11 -20
9 0 16 8 16 20 0 11 -5 20 -11 20 -5 0 -7 5 -4 10 4 6 11 7 17 4 7 -4 8 -2 4
4 -4 7 -2 12 3 12 10 0 8 61 -3 78 -2 4 2 13 10 19 7 7 15 9 19 4 3 -5 -1 -12
-7 -14 -10 -4 -10 -6 0 -6 17 -1 29 32 14 37 -7 2 -12 11 -12 20 0 15 -2 15
-10 2 -10 -14 -10 -11 -1 40 1 3 6 -2 12 -10 9 -13 10 -13 6 0 -2 10 -17 15
-42 15 -31 0 -42 6 -65 35 -15 19 -31 48 -34 64 -7 28 -7 28 29 22 20 -4 43
-10 52 -13 10 -4 14 -2 11 7 -2 7 -25 18 -50 25 -26 6 -66 25 -89 41 -23 16
-53 37 -68 46 -38 26 -2 24 56 -3 34 -15 48 -18 53 -9 6 9 15 8 37 -4 27 -13
72 -14 94 0 16 10 -17 54 -41 55 -22 1 -21 2 8 10 33 10 34 12 36 70 1 31 -2
35 -26 37 -26 2 -58 -20 -58 -40 0 -7 10 -2 23 10 28 26 49 28 45 5 -1 -10 1
-24 5 -30 11 -17 0 -33 -21 -33 -15 0 -15 2 -2 10 13 9 13 11 1 19 -10 6 -12
14 -5 23 5 8 0 4 -11 -9 -16 -18 -24 -20 -33 -11 -8 8 -15 8 -29 -2 -15 -12
-16 -12 -5 0 14 16 16 59 3 79 -7 10 -18 5 -50 -25 -22 -22 -41 -46 -41 -55 0
-25 -39 -59 -68 -59 -36 0 -57 14 -46 31 6 12 5 12 -8 1 -19 -15 -85 -2 -81
16 1 6 -7 8 -20 4 -12 -3 -19 -1 -15 3 4 5 3 14 -3 21 -18 22 -3 45 23 36 29
-11 58 -4 58 13 0 7 7 16 16 19 13 5 14 9 5 20 -9 11 -3 18 32 35 24 12 59 21
78 21 28 0 35 -4 36 -21 1 -12 4 -23 7 -26 10 -10 45 9 51 28 8 23 25 25 25 3
0 -10 7 -14 22 -12 30 4 35 34 9 43 -12 3 -21 13 -21 22 0 11 4 13 13 6 21
-17 85 -23 96 -9 8 9 4 19 -16 36 l-27 23 22 8 c28 10 28 29 2 36 l-21 6 21
19 c22 21 25 34 9 44 -14 8 -25 -4 -33 -39 -6 -24 -3 -30 14 -34 11 -3 20 -9
20 -14 0 -12 -14 -11 -27 2 -7 7 -13 7 -17 0 -4 -5 -14 -7 -24 -4 -14 5 -14 3
3 -17 11 -13 15 -20 8 -17 -6 4 -13 1 -15 -5 -3 -7 -7 0 -10 15 -4 20 0 30 13
38 26 13 25 49 0 49 -11 0 -23 -4 -26 -10 -3 -5 -12 -10 -18 -10 -8 0 -7 4 2
9 13 8 13 12 0 28 -13 17 -13 17 5 3 17 -13 19 -13 14 0 -2 8 -12 16 -22 18
-14 3 -16 -5 -15 -50 2 -35 8 -57 18 -65 14 -11 14 -12 1 -13 -25 0 -38 14
-38 40 0 63 -2 75 -11 60 -6 -8 -7 -19 -3 -25 3 -5 -2 -4 -11 4 -22 17 -22 3
-1 -21 14 -14 14 -20 4 -33 -15 -18 -36 -20 -46 -4 -4 8 1 9 16 4 15 -5 20 -4
16 4 -4 6 -15 11 -24 12 -11 1 -8 4 8 9 l25 8 -27 1 c-22 1 -27 -3 -26 -21 1
-13 6 -28 11 -35 10 -13 -26 -73 -44 -73 -6 0 -1 13 10 29 18 25 19 30 6 41
-23 19 -48 -5 -34 -31 8 -16 4 -25 -23 -49 -18 -17 -42 -30 -54 -30 -12 0 -29
-3 -38 -6 -11 -4 -16 0 -17 12 0 15 -2 15 -6 4 -11 -29 -41 -61 -48 -50 -3 5
-2 10 4 10 6 0 16 10 22 23 11 21 11 21 -6 7 -17 -14 -18 -12 -13 34 6 49 6
50 -12 26 -11 -14 -22 -20 -30 -15 -7 4 -16 2 -21 -6 -4 -8 -12 -14 -16 -14
-4 0 -19 -11 -32 -24 -17 -17 -25 -20 -31 -11 -5 9 -9 9 -14 1 -4 -6 -31 -11
-59 -11 -34 0 -47 3 -38 9 8 5 21 7 29 3 12 -4 14 1 9 31 -5 34 -4 35 21 34
17 -1 27 4 30 14 4 21 -26 33 -44 18 -11 -9 -14 -9 -14 0 0 6 8 14 18 17 44
14 60 39 24 39 -9 1 -23 4 -30 9 -7 4 -16 5 -19 2 -4 -3 -1 -6 5 -6 7 0 12 -5
12 -11 0 -6 -7 -9 -15 -5 -8 3 -15 1 -15 -5 0 -6 -7 -4 -15 5 -18 17 -20 40
-3 30 7 -4 8 -3 4 5 -13 21 -27 0 -20 -32 6 -29 5 -30 -10 -14 -20 19 -32 21
-41 8 -3 -5 -20 -7 -39 -4 -40 6 -49 -5 -31 -40 14 -28 6 -37 -36 -37 -10 0
-19 -7 -19 -15 0 -16 -12 -20 -23 -8 -4 3 -2 13 5 20 9 11 9 17 -3 24 -13 9
-34 7 -76 -7 -10 -3 -4 3 12 15 17 11 40 21 52 21 13 0 22 5 20 12 -1 7 8 14
21 16 12 2 22 7 22 11 0 16 83 66 135 82 56 17 108 15 125 -6 6 -8 17 -12 25
-9 7 3 16 1 20 -5 4 -7 0 -8 -11 -4 -12 4 -15 2 -12 -8 3 -8 11 -13 17 -11 7
1 10 -1 8 -5 -2 -5 -1 -17 4 -28 7 -18 8 -18 8 -2 1 10 6 15 11 12 7 -4 6 -14
-1 -28 -9 -20 -9 -20 9 2 17 21 25 23 66 19 44 -5 59 3 34 18 -7 5 -8 3 -3 -6
5 -8 4 -11 -2 -7 -6 4 -8 17 -6 30 6 30 -21 43 -49 23 -19 -14 -19 -14 -1 -25
10 -6 13 -11 7 -11 -6 0 -17 6 -23 14 -10 12 -8 17 8 26 12 6 21 15 21 21 0 6
-6 7 -12 3 -7 -4 -4 2 6 14 11 12 14 22 8 22 -7 0 -12 -4 -12 -10 0 -6 -9 -6
-26 0 -18 7 -33 6 -54 -5 -39 -20 -94 -20 -86 0 5 13 2 14 -22 1 -15 -8 -46
-18 -67 -22 -38 -7 -39 -6 -25 12 8 10 -2 4 -21 -13 -19 -18 -39 -33 -43 -33
-4 0 -17 -10 -28 -22 l-19 -23 5 26 c4 18 0 35 -14 50 -11 13 -19 21 -20 17 0
-4 -16 0 -35 8 -19 8 -35 12 -35 8 0 -13 22 -44 31 -44 6 0 7 5 4 10 -3 6 1
10 9 10 22 0 20 -13 -4 -28 -27 -17 -25 -30 5 -38 14 -3 25 -12 25 -19 0 -16
-47 -48 -62 -43 -7 3 -20 -4 -31 -15 -29 -29 -30 -15 -1 36 14 26 21 47 16 47
-6 0 -27 -29 -47 -65 -20 -36 -40 -65 -45 -65 -14 0 -12 14 3 29 10 10 9 11
-5 6 -11 -4 -18 -2 -18 4 0 6 7 11 16 11 8 0 12 5 9 11 -4 6 -13 8 -21 5 -8
-3 -14 -1 -14 4 0 17 -28 11 -39 -7 -6 -10 -11 -14 -11 -10 0 4 -9 3 -20 -3
-21 -11 -28 -40 -10 -40 6 0 10 -5 10 -11 0 -15 -56 -69 -71 -69 -10 0 -10 3
-1 12 7 7 12 16 12 22 0 5 -15 -4 -33 -22 -18 -18 -37 -32 -43 -32 -5 0 -15
-9 -22 -20 -18 -30 -35 -25 -28 8 4 15 23 41 44 59 20 17 33 35 28 40 -4 4
-17 -4 -28 -20 -25 -34 -41 -35 -28 -1 15 39 58 68 101 69 20 1 45 8 55 16 16
13 15 15 -12 21 -25 6 -23 7 8 3 21 -2 44 2 55 10 10 8 13 15 6 15 -6 0 -19 7
-27 16 -15 14 -16 14 -16 -2 0 -22 -13 -10 -17 16 -2 12 3 20 11 20 7 0 26 17
42 38 27 36 27 37 2 14 -18 -17 -28 -20 -33 -12 -4 7 -1 16 6 21 11 7 9 9 -6
9 -14 0 -21 -7 -21 -19 0 -11 4 -17 8 -15 4 3 8 0 8 -5 0 -6 -4 -11 -8 -11
-14 0 -32 23 -32 42 0 10 -4 18 -10 18 -6 0 -6 -9 0 -24z m700 -14 c0 -5 -7
-9 -15 -9 -8 0 -12 4 -9 9 3 4 9 8 15 8 5 0 9 -4 9 -8z m-726 -37 c3 -8 1 -15
-4 -15 -6 0 -10 7 -10 15 0 8 2 15 4 15 2 0 6 -7 10 -15z m726 5 c13 -9 13
-10 0 -10 -8 0 -22 5 -30 10 -13 9 -13 10 0 10 8 0 22 -5 30 -10z m-1087 -6
c9 -9 -4 -35 -14 -28 -5 3 -9 12 -9 20 0 14 12 19 23 8z m1622 -3 c3 -5 1 -12
-5 -16 -5 -3 -10 1 -10 9 0 18 6 21 15 7z m-1700 -21 c3 -5 2 -10 -4 -10 -5 0
-13 5 -16 10 -3 6 -2 10 4 10 5 0 13 -4 16 -10z m332 -7 c0 -9 -4 -10 -14 -2
-7 6 -13 12 -13 14 0 1 6 2 13 2 8 0 14 -6 14 -14z m443 7 c0 -5 -4 -10 -10
-10 -5 0 -10 5 -10 10 0 6 5 10 10 10 6 0 10 -4 10 -10z m400 -20 c0 -5 -7 -7
-15 -4 -8 4 -12 10 -9 15 6 11 24 2 24 -11z m470 5 c0 -8 -6 -15 -13 -15 -8 0
-14 7 -14 15 0 8 6 15 14 15 7 0 13 -7 13 -15z m-1510 -6 c0 -5 6 -7 13 -3 6
4 4 -2 -5 -12 -18 -18 -18 -18 -35 0 -10 10 -12 16 -5 12 6 -4 12 -2 12 3 0 6
5 11 10 11 6 0 10 -5 10 -11z m110 -39 c9 -16 8 -22 -5 -26 -8 -3 -13 -9 -10
-14 2 -4 -2 -16 -10 -26 -22 -29 -18 -34 24 -34 58 0 71 -8 71 -42 0 -49 -19
-101 -52 -138 l-29 -35 4 83 c2 45 0 82 -5 82 -4 0 -8 -10 -8 -22 l-1 -23 -19
24 c-24 28 -27 93 -5 111 9 7 14 19 11 27 -3 8 -1 11 4 8 13 -8 13 1 0 26 -8
15 -7 19 4 19 9 0 20 -9 26 -20z m830 0 c0 -5 -4 -10 -10 -10 -5 0 -10 5 -10
10 0 6 5 10 10 10 6 0 10 -4 10 -10z m-500 -14 c0 -3 -4 -8 -10 -11 -5 -3 -10
-1 -10 4 0 6 5 11 10 11 6 0 10 -2 10 -4z m287 -18 c-3 -8 -6 -5 -6 6 -1 11 2
17 5 13 3 -3 4 -12 1 -19z m93 12 c0 -5 -4 -10 -10 -10 -5 0 -10 5 -10 10 0 6
5 10 10 10 6 0 10 -4 10 -10z m581 -3 c-6 -8 -9 -17 -6 -20 3 -4 2 -5 -2 -2
-3 3 -15 -2 -25 -12 -10 -9 -18 -11 -18 -5 0 6 12 20 26 31 30 24 42 27 25 8z
m-1423 -11 c-20 -15 -14 -27 10 -19 14 4 14 3 3 -5 -7 -5 -21 -8 -30 -7 -9 2
-18 4 -20 4 -9 2 33 41 43 41 6 0 3 -7 -6 -14z m82 -2 c0 -8 -4 -12 -10 -9 -5
3 -10 10 -10 16 0 5 5 9 10 9 6 0 10 -7 10 -16z m720 -16 c0 -19 -16 -5 -17
14 -2 18 0 20 7 8 5 -8 10 -18 10 -22z m540 17 c0 -8 -4 -15 -10 -15 -5 0 -10
7 -10 15 0 8 5 15 10 15 6 0 10 -7 10 -15z m-445 -5 c-3 -5 -11 -10 -16 -10
-6 0 -7 5 -4 10 3 6 11 10 16 10 6 0 7 -4 4 -10z m555 -5 c-7 -9 -15 -13 -17
-11 -7 7 7 26 19 26 6 0 6 -6 -2 -15z m-590 -16 c0 -6 -4 -7 -10 -4 -5 3 -10
11 -10 16 0 6 5 7 10 4 6 -3 10 -11 10 -16z m-408 -11 c-7 -7 -12 -8 -12 -2 0
14 12 26 19 19 2 -3 -1 -11 -7 -17z m493 12 c3 -5 1 -10 -4 -10 -6 0 -11 5
-11 10 0 6 2 10 4 10 3 0 8 -4 11 -10z m535 -11 c0 -5 -4 -9 -8 -9 -5 0 -9 7
-9 15 0 8 4 12 9 9 4 -3 8 -9 8 -15z m70 11 c0 -5 -5 -10 -11 -10 -5 0 -7 5
-4 10 3 6 8 10 11 10 2 0 4 -4 4 -10z m40 -5 c0 -8 -2 -15 -4 -15 -2 0 -6 7
-10 15 -3 8 -1 15 4 15 6 0 10 -7 10 -15z m-1700 1 c0 -2 -7 -6 -15 -10 -8 -3
-15 -1 -15 4 0 6 7 10 15 10 8 0 15 -2 15 -4z m235 -16 c3 -5 -1 -10 -10 -10
-9 0 -13 5 -10 10 3 6 8 10 10 10 2 0 7 -4 10 -10z m1311 -12 c-9 -5 -24 -7
-34 -5 -12 3 -11 5 6 6 12 0 22 6 22 12 0 5 5 7 11 3 8 -5 6 -10 -5 -16z
m-1481 -1 c3 -4 2 -5 -1 -2 -4 2 -13 -2 -21 -10 -17 -17 -33 -19 -33 -5 0 6 8
10 18 10 14 0 15 2 2 10 -12 8 -10 9 7 7 12 -2 25 -6 28 -10z m51 -14 c-8 -8
-36 5 -36 17 0 7 6 7 21 0 11 -7 18 -14 15 -17z m574 12 c7 -8 15 -13 19 -11
3 2 14 -7 24 -20 15 -21 16 -24 2 -24 -8 0 -16 8 -16 18 -1 16 -2 16 -6 0 -2
-10 -13 -18 -24 -18 -11 0 -19 7 -19 18 -1 16 -1 16 -11 0 -11 -20 -44 -24
-54 -8 -4 6 -1 9 7 8 7 -2 12 3 10 11 -7 34 44 55 68 26z m185 -7 c6 -4 2 -8
-7 -8 -10 0 -18 7 -18 17 0 9 3 12 8 7 4 -5 12 -12 17 -16z m105 12 c0 -5 -5
-10 -11 -10 -5 0 -7 5 -4 10 3 6 8 10 11 10 2 0 4 -4 4 -10z m-394 -15 c-11
-8 -24 -15 -30 -15 -5 0 -1 7 10 15 10 8 24 14 29 14 6 0 1 -6 -9 -14z m425
-8 c-13 -13 -26 -3 -16 12 3 6 11 8 17 5 6 -4 6 -10 -1 -17z m215 -6 c-1 -16
-5 -33 -10 -38 -5 -4 -7 -1 -3 9 3 9 1 19 -6 21 -9 3 -8 8 2 20 18 22 19 22
17 -12z m-386 9 c0 -5 -4 -10 -10 -10 -5 0 -10 5 -10 10 0 6 5 10 10 10 6 0
10 -4 10 -10z m790 -11 c0 -6 -4 -7 -10 -4 -5 3 -10 11 -10 16 0 6 5 7 10 4 6
-3 10 -11 10 -16z m-450 -28 c-8 -15 -8 -21 0 -21 6 0 8 -5 5 -11 -7 -11 -34
17 -35 36 0 6 4 4 9 -4 7 -11 10 -9 16 8 4 13 9 20 12 18 2 -3 0 -15 -7 -26z
m370 20 c0 -12 -20 -25 -27 -18 -7 7 6 27 18 27 5 0 9 -4 9 -9z m-1005 -9 c20
-14 14 -30 -10 -27 -15 1 -25 -3 -25 -10 0 -7 -14 -25 -32 -40 -28 -24 -33
-25 -44 -11 -14 20 -43 20 -65 0 -10 -9 -23 -14 -30 -12 -7 2 8 19 35 37 44
30 49 32 65 17 15 -14 20 -14 36 -2 16 11 17 17 7 29 -10 12 -10 16 0 20 20 8
52 8 63 -1z m270 -2 c3 -5 1 -10 -4 -10 -6 0 -11 5 -11 10 0 6 2 10 4 10 3 0
8 -4 11 -10z m514 -21 c-22 -14 -33 -10 -19 6 7 8 17 12 22 9 6 -4 5 -10 -3
-15z m-1227 -11 c-7 -7 -12 -8 -12 -2 0 14 12 26 19 19 2 -3 -1 -11 -7 -17z
m358 2 c0 -5 -4 -10 -10 -10 -5 0 -10 5 -10 10 0 6 5 10 10 10 6 0 10 -4 10
-10z m370 0 c0 -5 -2 -10 -4 -10 -3 0 -8 5 -11 10 -3 6 -1 10 4 10 6 0 11 -4
11 -10z m90 -11 c0 -5 -12 -9 -27 -9 -27 1 -27 1 -9 15 19 14 36 12 36 -6z
m190 6 c-10 -9 -24 -12 -40 -8 -22 6 -22 7 -4 14 10 4 28 8 39 8 17 1 18 -1 5
-14z m235 -5 c-3 -5 -10 -10 -16 -10 -5 0 -9 5 -9 10 0 6 7 10 16 10 8 0 12
-4 9 -10z m-1155 -20 c0 -12 -17 -12 -45 0 -17 7 -15 9 13 9 17 1 32 -3 32 -9z
m1133 -7 c-7 -2 -19 -2 -25 0 -7 3 -2 5 12 5 14 0 19 -2 13 -5z m264 -15 c-3
-8 -6 -5 -6 6 -1 11 2 17 5 13 3 -3 4 -12 1 -19z m-640 6 c-3 -3 -12 -4 -19
-1 -8 3 -5 6 6 6 11 1 17 -2 13 -5z m118 -34 c3 -5 1 -10 -4 -10 -6 0 -11 5
-11 10 0 6 2 10 4 10 3 0 8 -4 11 -10z m-1084 -18 c-19 -3 -21 -6 -10 -13 11
-7 11 -9 1 -9 -7 0 -20 6 -28 14 -12 13 -10 15 13 18 16 2 33 1 38 -2 6 -3 -1
-7 -14 -8z m359 -12 l23 -20 -28 -30 c-16 -17 -35 -28 -42 -26 -7 3 -13 0 -13
-8 0 -7 -11 -23 -25 -36 -14 -13 -25 -19 -25 -13 0 6 7 16 15 23 12 10 13 15
4 21 -17 10 22 75 43 71 12 -2 15 3 11 18 -7 26 8 26 37 0z m45 10 c3 -5 2
-10 -4 -10 -5 0 -13 5 -16 10 -3 6 -2 10 4 10 5 0 13 -4 16 -10z m825 1 c0 -6
-4 -13 -10 -16 -5 -3 -10 1 -10 9 0 9 5 16 10 16 6 0 10 -4 10 -9z m-700 -11
c0 -5 -2 -10 -4 -10 -3 0 -8 5 -11 10 -3 6 -1 10 4 10 6 0 11 -4 11 -10z
m-345 -57 c-2 -8 -10 -11 -16 -7 -8 4 -7 9 2 15 9 5 10 9 2 9 -6 0 -9 9 -5 22
5 22 5 22 14 -2 5 -13 6 -30 3 -37z m905 29 c0 -11 -3 -12 -13 -3 -8 6 -17 8
-20 4 -4 -3 -7 -1 -7 5 0 6 9 10 20 9 11 -1 20 -8 20 -15z m-643 -33 c-3 -11
-1 -19 4 -19 5 0 9 9 9 20 0 12 5 17 14 14 25 -10 6 -39 -44 -67 -56 -32 -67
-33 -73 -9 -3 11 -5 7 -6 -10 -1 -27 -30 -46 -51 -33 -5 3 -10 -1 -10 -9 0
-16 -38 -42 -47 -32 -8 8 17 36 52 58 17 10 26 18 21 18 -5 0 1 11 14 25 13
14 32 25 42 25 11 0 17 4 13 9 -3 5 -1 12 4 15 5 4 12 2 16 -4 7 -12 26 -14
24 -2 -3 20 2 32 12 26 6 -3 9 -15 6 -25z m1253 -20 c10 -18 10 -19 -8 -10
-13 7 -22 7 -31 -2 -9 -9 -16 -9 -31 1 -24 15 -50 16 -50 1 0 -5 -5 -7 -11 -3
-18 11 19 27 47 20 14 -4 24 -2 24 4 0 19 49 10 60 -11z m-1165 2 c6 -11 -33
-26 -43 -16 -4 3 0 10 8 15 19 12 27 12 35 1z m348 -8 c4 9 6 9 6 0 2 -20 -15
-23 -35 -7 -18 14 -18 15 3 5 16 -8 23 -8 26 2z m277 -2 c0 -17 -18 -21 -24
-6 -3 9 0 15 9 15 8 0 15 -4 15 -9z m20 -16 c0 -8 -4 -15 -10 -15 -5 0 -7 7
-4 15 4 8 8 15 10 15 2 0 4 -7 4 -15z m-260 -16 c0 -5 -7 -9 -15 -9 -15 0 -20
12 -9 23 8 8 24 -1 24 -14z m337 5 c-3 -3 -12 -4 -19 -1 -8 3 -5 6 6 6 11 1
17 -2 13 -5z m-1237 -23 c0 -5 -12 -6 -27 -3 -24 5 -25 6 -8 12 21 8 35 4 35
-9z m577 -37 c0 -8 -4 -14 -9 -14 -4 0 -8 7 -8 16 0 8 -4 13 -9 10 -5 -3 -11
1 -14 9 -5 11 -2 12 17 4 12 -6 23 -17 23 -25z m-522 4 c-2 -22 -45 -38 -45
-16 0 6 3 8 7 5 3 -4 12 2 20 13 18 25 20 25 18 -2z m1230 12 c3 -5 1 -10 -4
-10 -6 0 -11 5 -11 10 0 6 2 10 4 10 3 0 8 -4 11 -10z m-475 -37 c0 -10 -4
-14 -8 -8 -4 6 -11 13 -16 18 -5 4 -2 7 7 7 10 0 17 -8 17 -17z m405 -3 c3 -5
1 -10 -4 -10 -6 0 -11 5 -11 10 0 6 2 10 4 10 3 0 8 -4 11 -10z m195 -32 c0 6
7 9 15 6 21 -9 8 -24 -21 -24 -15 0 -24 6 -24 16 0 14 3 14 15 4 10 -8 15 -9
15 -2z m-1426 -24 c3 -8 2 -12 -4 -9 -6 3 -10 10 -10 16 0 14 7 11 14 -7z m11
-44 c3 -5 1 -10 -4 -10 -6 0 -11 5 -11 10 0 6 2 10 4 10 3 0 8 -4 11 -10z
m166 -17 c-12 -20 -14 -14 -5 12 4 9 9 14 11 11 3 -2 0 -13 -6 -23z m1479 -8
c20 -24 6 -28 -15 -5 -10 11 -13 20 -8 20 6 0 16 -7 23 -15z m40 -9 c0 -3 -4
-8 -10 -11 -5 -3 -10 -1 -10 4 0 6 5 11 10 11 6 0 10 -2 10 -4z m-49 -23 c13
-16 12 -17 -3 -4 -10 7 -18 15 -18 17 0 8 8 3 21 -13z m-1408 -30 c-7 -2 -21
-2 -30 0 -10 3 -4 5 12 5 17 0 24 -2 18 -5z m1417 -7 c0 -3 -4 -8 -10 -11 -5
-3 -10 -1 -10 4 0 6 5 11 10 11 6 0 10 -2 10 -4z m30 -11 c0 -8 -2 -15 -4 -15
-2 0 -6 7 -10 15 -3 8 -1 15 4 15 6 0 10 -7 10 -15z m-64 -37 c-12 -7 -21 -7
-28 0 -6 6 0 10 18 10 23 0 24 -2 10 -10z"/>
<path d="M893 3279 c9 -5 17 -19 17 -29 0 -11 3 -20 8 -20 4 0 7 11 7 24 0 13
-3 22 -7 20 -4 -2 -9 0 -13 6 -3 5 -12 10 -18 10 -7 0 -4 -5 6 -11z"/>
<path d="M565 3269 c-4 -6 -4 -13 -1 -16 3 -4 6 -1 6 5 0 6 8 13 18 15 15 4
15 5 0 6 -9 0 -20 -4 -23 -10z"/>
<path d="M2055 3011 c-3 -5 -1 -12 5 -16 5 -3 10 1 10 9 0 18 -6 21 -15 7z"/>
<path d="M1121 2904 c0 -11 3 -14 6 -6 3 7 2 16 -1 19 -3 4 -6 -2 -5 -13z"/>
<path d="M1517 2759 c7 -7 15 -10 18 -7 3 3 -2 9 -12 12 -14 6 -15 5 -6 -5z"/>
<path d="M1428 2622 c-54 -50 -102 -79 -236 -147 -59 -30 -116 -61 -127 -69
-19 -14 -19 -15 8 -21 15 -4 38 -21 52 -37 25 -29 25 -33 25 -204 l0 -174 -24
0 c-19 0 -32 -13 -56 -52 -18 -29 -48 -70 -67 -91 -36 -41 -38 -56 -5 -38 12
6 46 8 87 4 l68 -6 -7 -195 c-5 -116 -13 -213 -22 -241 -20 -70 -71 -141 -113
-159 -20 -8 -30 -17 -23 -19 17 -6 91 31 128 65 l30 28 27 -57 c16 -34 59 -90
110 -145 82 -87 85 -88 112 -76 45 21 257 176 303 223 55 57 88 123 75 152 -9
20 -14 14 -51 -58 -46 -90 -56 -104 -92 -128 -56 -39 -151 -4 -217 79 -61 78
-61 78 -55 317 l5 217 81 0 c141 0 143 1 238 104 l85 91 -146 -3 -145 -4 51
47 c29 25 76 76 104 113 29 37 63 77 77 88 21 18 24 28 18 56 -7 37 -222 370
-243 376 -7 2 -31 -14 -55 -36z m-7 -264 c74 -112 119 -203 119 -241 0 -42
-33 -82 -92 -111 -79 -40 -84 -37 -91 42 -8 80 -9 402 -2 402 3 0 33 -42 66
-92z"/>
<path d="M2111 2563 c-20 -17 -21 -20 -8 -32 13 -10 17 -9 27 9 17 32 7 44
-19 23z"/>
<path d="M2144 2518 c3 -12 1 -15 -11 -11 -8 3 -19 0 -24 -8 -7 -11 -9 -11 -9
-1 0 7 -4 10 -10 7 -17 -11 -11 -45 7 -45 14 0 13 -3 -5 -16 -27 -18 -29 -34
-4 -34 11 0 24 11 30 25 6 14 18 25 27 25 18 0 20 37 4 60 -9 13 -10 12 -5 -2z"/>
<path d="M475 745 l0 -135 38 0 37 0 0 135 0 135 -37 0 -38 0 0 -135z"/>
<path d="M581 878 c2 -2 16 -14 32 -27 l27 -24 0 26 c0 24 -4 27 -32 27 -17 0
-29 -1 -27 -2z"/>
<path d="M715 745 l0 -135 38 0 38 0 -3 133 -3 132 -35 3 -35 3 0 -136z"/>
<path d="M841 851 c20 -28 24 -44 24 -106 0 -61 -4 -79 -23 -104 l-23 -31 22
0 c12 0 39 17 60 39 36 36 39 43 39 95 0 50 -4 60 -32 91 -18 19 -46 37 -62
41 l-29 7 24 -32z"/>
<path d="M1018 778 c3 -92 14 -148 31 -148 18 0 35 67 40 153 l6 97 -40 0 -40
0 3 -102z"/>
<path d="M1171 863 c7 -10 14 -19 14 -20 0 -1 6 7 13 17 11 18 9 20 -14 20
-24 0 -25 -2 -13 -17z"/>
<path d="M1295 745 l0 -135 41 0 40 0 -4 59 c-3 38 0 61 7 66 9 5 9 10 0 21
-7 9 -10 35 -7 69 l5 55 -41 0 -41 0 0 -135z"/>
<path d="M1425 745 l0 -135 40 0 40 0 0 135 0 135 -40 0 -40 0 0 -135z"/>
<path d="M1726 843 c17 -48 17 -147 0 -195 l-13 -37 29 15 c87 45 89 186 2
236 l-32 19 14 -38z"/>
<path d="M1875 745 l0 -135 44 0 c35 0 42 3 37 16 -3 9 -6 69 -6 135 l0 119
-37 0 -38 0 0 -135z"/>
<path d="M1994 858 c23 -32 20 -100 -5 -132 -24 -31 -12 -33 40 -6 43 21 51
35 51 85 0 39 -37 75 -77 75 -23 0 -23 -1 -9 -22z"/>
<path d="M2155 745 l0 -135 37 0 38 0 -3 133 -2 132 -35 3 -35 3 0 -136z"/>
<path d="M2272 869 c10 -5 24 -19 33 -32 15 -21 15 -21 15 11 0 30 -2 32 -32
32 -27 -1 -30 -2 -16 -11z"/>
<path d="M1617 850 c-69 -54 -56 -184 22 -224 l28 -15 -14 42 c-18 49 -13 178
7 202 19 23 -11 20 -43 -5z"/>
<path d="M584 762 l-21 -18 24 -17 23 -18 0 36 c0 40 1 40 -26 17z"/>
<path d="M2264 762 l-21 -18 24 -17 23 -18 0 36 c0 40 1 40 -26 17z"/>
<path d="M607 635 l-28 -25 30 0 c26 0 31 4 31 25 0 30 2 30 -33 0z"/>
<path d="M2287 635 l-28 -25 30 0 c26 0 31 4 31 25 0 30 2 30 -33 0z"/>
<path d="M568 380 c-2 -22 0 -40 4 -40 5 0 8 18 8 40 0 22 -2 40 -4 40 -2 0
-6 -18 -8 -40z"/>
<path d="M623 380 c0 -25 2 -35 4 -22 2 12 2 32 0 45 -2 12 -4 2 -4 -23z"/>
<path d="M682 408 c-17 -17 -15 -43 6 -59 14 -11 15 -11 5 1 -20 22 -15 50 10
60 13 5 16 9 7 9 -9 1 -21 -4 -28 -11z"/>
<path d="M792 380 c0 -25 2 -38 5 -30 4 8 15 21 26 30 18 15 19 16 1 30 -17
14 -18 13 -7 -1 7 -9 10 -19 6 -22 -12 -13 -22 -7 -26 16 -2 12 -5 2 -5 -23z"/>
<path d="M883 413 c9 -2 23 -2 30 0 6 3 -1 5 -18 5 -16 0 -22 -2 -12 -5z"/>
<path d="M1010 378 c0 -23 3 -38 7 -35 3 4 6 20 5 36 0 23 4 31 21 34 18 4 17
5 -5 6 -26 1 -28 -2 -28 -41z"/>
<path d="M1102 408 c-17 -17 -15 -43 6 -59 14 -11 15 -11 5 1 -20 22 -15 50
10 60 13 5 16 9 7 9 -9 1 -21 -4 -28 -11z"/>
<path d="M1213 380 c0 -25 2 -35 4 -22 2 12 2 32 0 45 -2 12 -4 2 -4 -23z"/>
<path d="M1348 413 c6 -2 12 -20 12 -39 0 -19 4 -34 8 -34 4 0 6 15 4 34 -3
27 0 35 15 39 10 3 2 5 -17 5 -19 0 -29 -2 -22 -5z"/>
<path d="M1438 380 c-2 -22 0 -40 4 -40 5 0 8 18 8 40 0 22 -2 40 -4 40 -2 0
-6 -18 -8 -40z"/>
<path d="M1493 380 c0 -25 2 -35 4 -22 2 12 2 32 0 45 -2 12 -4 2 -4 -23z"/>
<path d="M1548 380 c-3 -39 -3 -40 27 -39 23 1 25 3 8 6 -29 6 -33 59 -5 66
13 4 12 5 -4 6 -18 1 -23 -5 -26 -39z"/>
<path d="M1693 413 c9 -2 23 -2 30 0 6 3 -1 5 -18 5 -16 0 -22 -2 -12 -5z"/>
<path d="M1774 380 c1 -30 4 -35 26 -35 22 0 25 5 26 35 1 35 1 35 -3 3 -3
-24 -9 -33 -23 -33 -14 0 -20 9 -23 33 -4 32 -4 32 -3 -3z"/>
<path d="M1878 413 c6 -2 12 -20 12 -39 0 -19 4 -34 8 -34 4 0 6 15 4 34 -3
27 0 35 15 39 10 3 2 5 -17 5 -19 0 -29 -2 -22 -5z"/>
<path d="M2071 378 c1 -24 3 -35 6 -25 5 21 22 22 29 2 4 -8 11 -15 16 -15 7
0 7 5 0 13 -6 7 -9 22 -6 34 3 11 1 24 -4 27 -6 4 -8 -2 -5 -14 4 -14 0 -20
-12 -20 -12 0 -16 6 -12 20 3 11 1 20 -4 20 -5 0 -8 -19 -8 -42z"/>
<path d="M2168 380 c-3 -39 -3 -40 27 -39 23 1 25 3 8 6 -29 6 -33 59 -5 66
13 4 12 5 -4 6 -18 1 -23 -5 -26 -39z"/>
<path d="M736 392 c3 -13 0 -31 -7 -40 -12 -16 -12 -16 6 0 15 14 17 21 7 40
l-12 23 6 -23z"/>
<path d="M1156 392 c3 -13 0 -31 -7 -40 -12 -16 -12 -16 6 0 15 14 17 21 7 40
l-12 23 6 -23z"/>
<path d="M1243 391 c-9 -15 -9 -23 3 -37 14 -18 15 -18 5 2 -7 15 -7 24 1 32
7 7 10 14 7 16 -3 3 -10 -3 -16 -13z"/>
<path d="M1970 362 c0 -18 29 -27 43 -13 9 9 8 11 -7 5 -11 -4 -21 -2 -27 7
-6 10 -9 11 -9 1z"/>
<path d="M883 343 c9 -2 25 -2 35 0 9 3 1 5 -18 5 -19 0 -27 -2 -17 -5z"/>
</g>
</svg>
